<svg width="460" height="280" xmlns="http://www.w3.org/2000/svg">
 <!-- Created with Method Draw - http://github.com/duopixel/Method-Draw/ -->

 <g>
  <title>background</title>
  <rect fill="none" id="canvas_background" height="282" width="462" y="-1" x="-1"/>
 </g>
 <g>
  <title>Layer 1</title>
  <path stroke="#000" fill="#007fff" stroke-width="1.5" d="m383.581222,104.13207c0.333794,-3.518535 0.527041,-7.07315 0.527041,-10.663868c-19.013224,-55.478037 -52.394974,-75.228504 -109.079213,-84.555184c-47.203853,4.701149 -66.947435,4.689494 -103.439597,45.021287c-10.347485,-11.656275 -25.104513,-12.052329 -41.671035,-12.052329c-25.241403,4.704018 -50.556736,21.297054 -56.551056,51.026872c0,3.789192 -9.586466,-0.74387 -8.901326,2.828808c-41.671035,7.05511 -69.560549,56.890666 -63.566229,96.971287c5.99432,40.080622 46.327883,65.522762 94.832832,78.458812l271.896937,11.760045c48.522523,0 87.839469,-40.381961 87.839469,-90.218857c0.017573,-44.225273 -31.007329,-80.854133 -71.887824,-88.576873z" id="svg_3" opacity="0.7" transform="rotate(-2 227.77951049804778,145.9204101562494) "/>
  <text fill="#000000" stroke-width="0" x="156.6164" y="192.760533" id="svg_2" font-size="26" font-family="'Courier New', Courier, monospace" text-anchor="start" xml:space="preserve" transform="matrix(8.24635189404581,0,0,9.713893841223555,-1235.7124300826008,-1618.2548816565934) " stroke="#000" font-weight="bold">Loc</text>
 </g>
</svg>